<svg xmlns="http://www.w3.org/2000/svg" xmlns:xlink="http://www.w3.org/1999/xlink" width="24" height="24" preserveAspectRatio="xMidYMid meet" viewBox="0 0 24 24" style="-ms-transform: rotate(360deg); -webkit-transform: rotate(360deg); transform: rotate(360deg);"><path fill-rule="evenodd" d="M12 .25a.75.75 0 0 1 .673.418l3.058 6.197l6.839.994a.75.75 0 0 1 .415 1.279l-4.948 4.823l1.168 6.811a.75.75 0 0 1-1.088.791L12 18.347l-6.117 3.216a.75.75 0 0 1-1.088-.79l1.168-6.812l-4.948-4.823a.75.75 0 0 1 .416-1.28l6.838-.993L11.328.668A.75.75 0 0 1 12 .25zm0 2.445L9.44 7.882a.75.75 0 0 1-.565.41l-5.725.832l4.143 4.038a.75.75 0 0 1 .215.664l-.978 5.702l5.121-2.692a.75.75 0 0 1 .698 0l5.12 2.692l-.977-5.702a.75.75 0 0 1 .215-.664l4.143-4.038l-5.725-.831a.75.75 0 0 1-.565-.41L12 2.694z" fill="#626262"/><rect x="0" y="0" width="24" height="24" fill="rgba(0, 0, 0, 0)" /></svg>