<svg xmlns="http://www.w3.org/2000/svg" xmlns:xlink="http://www.w3.org/1999/xlink" width="24" height="24" preserveAspectRatio="xMidYMid meet" viewBox="0 0 24 24" style="-ms-transform: rotate(360deg); -webkit-transform: rotate(360deg); transform: rotate(360deg);"><path fill-rule="evenodd" d="M3.5 8a5.5 5.5 0 1 1 8.596 4.547a9.005 9.005 0 0 1 5.9 8.18a.75.75 0 0 1-1.5.045a7.5 7.5 0 0 0-14.993 0a.75.75 0 0 1-1.499-.044a9.005 9.005 0 0 1 5.9-8.181A5.494 5.494 0 0 1 3.5 8zM9 4a4 4 0 1 0 0 8a4 4 0 0 0 0-8z" fill="#626262"/><path d="M17.29 8c-.148 0-.292.01-.434.03a.75.75 0 1 1-.212-1.484a4.53 4.53 0 0 1 3.38 8.097a6.69 6.69 0 0 1 3.956 6.107a.75.75 0 0 1-1.5 0a5.193 5.193 0 0 0-3.696-4.972l-.534-.16v-1.676l.41-.209A3.03 3.03 0 0 0 17.29 8z" fill="#626262"/><rect x="0" y="0" width="24" height="24" fill="rgba(0, 0, 0, 0)" /></svg>