<svg xmlns="http://www.w3.org/2000/svg" xmlns:xlink="http://www.w3.org/1999/xlink" width="16" height="16" preserveAspectRatio="xMidYMid meet" viewBox="0 0 16 16" style="-ms-transform: rotate(360deg); -webkit-transform: rotate(360deg); transform: rotate(360deg);"><path fill-rule="evenodd" d="M11.536 3.464a5 5 0 0 1 0 7.072L8 14.07l-3.536-3.535a5 5 0 1 1 7.072-7.072v.001zm1.06 8.132a6.5 6.5 0 1 0-9.192 0l3.535 3.536a1.5 1.5 0 0 0 2.122 0l3.535-3.536zM8 9a2 2 0 1 0 0-4a2 2 0 0 0 0 4z" fill="#626262"/><rect x="0" y="0" width="16" height="16" fill="rgba(0, 0, 0, 0)" /></svg>